<?xml version="1.0" encoding="UTF-8" standalone="no"?>
<!-- Created with Inkscape (http://www.inkscape.org/) -->

<svg
   xmlns:dc="http://purl.org/dc/elements/1.1/"
   xmlns:cc="http://creativecommons.org/ns#"
   xmlns:rdf="http://www.w3.org/1999/02/22-rdf-syntax-ns#"
   xmlns:svg="http://www.w3.org/2000/svg"
   xmlns="http://www.w3.org/2000/svg"
   xmlns:sodipodi="http://sodipodi.sourceforge.net/DTD/sodipodi-0.dtd"
   xmlns:inkscape="http://www.inkscape.org/namespaces/inkscape"
   width="506.95297"
   height="650.04242"
   id="svg2"
   version="1.1"
   inkscape:version="0.48.3.1 r9886"
   sodipodi:docname="penguin.svg">
  <defs
     id="defs4" />
  <sodipodi:namedview
     id="base"
     pagecolor="#ffffff"
     bordercolor="#666666"
     borderopacity="1.0"
     inkscape:pageopacity="0.0"
     inkscape:pageshadow="2"
     inkscape:zoom="0.31314724"
     inkscape:cx="335.57367"
     inkscape:cy="327.0953"
     inkscape:document-units="px"
     inkscape:current-layer="layer1"
     showgrid="false"
     showguides="true"
     inkscape:guide-bbox="true"
     inkscape:window-width="1366"
     inkscape:window-height="718"
     inkscape:window-x="0"
     inkscape:window-y="0"
     inkscape:window-maximized="1"
     fit-margin-top="0"
     fit-margin-left="0"
     fit-margin-right="0"
     fit-margin-bottom="0" />
  <metadata
     id="metadata7">
    <rdf:RDF>
      <cc:Work
         rdf:about="">
        <dc:format>image/svg+xml</dc:format>
        <dc:type
           rdf:resource="http://purl.org/dc/dcmitype/StillImage" />
      </cc:Work>
    </rdf:RDF>
  </metadata>
  <g
     inkscape:label="Layer 1"
     inkscape:groupmode="layer"
     id="layer1"
     transform="translate(-114.75462,-70.270052)">
    <path
       style="fill:#000000;stroke:#000000;stroke-width:1px;stroke-linecap:butt;stroke-linejoin:miter;stroke-opacity:1"
       d="m 415.93937,614.04616 c 86.70988,36.85794 80.04547,63.60329 80.04547,63.60329 l -39.88352,3.21628 -18.99337,38.73416 c 0,0 -49.91374,-29.2142 -47.44488,-85.79232 2.46884,-56.57817 26.2763,-19.76141 26.2763,-19.76141 z"
       id="path4126-5"
       inkscape:connector-curvature="0" />
    <path
       style="fill:#000000;stroke:#000000;stroke-width:1px;stroke-linecap:butt;stroke-linejoin:miter;stroke-opacity:1"
       d="m 310.72629,614.04617 c -86.70988,36.85794 -80.04547,63.60329 -80.04547,63.60329 l 39.88352,3.21628 18.99337,38.73416 c 0,0 49.91373,-29.2142 47.44487,-85.79232 -2.46884,-56.57817 -26.27629,-19.76141 -26.27629,-19.76141 z"
       id="path4126"
       inkscape:connector-curvature="0" />
    <path
       style="fill:#808080;fill-opacity:1;stroke:none"
       d="m 537.99869,523.57894 c -42.66163,131.70345 -84.24954,137.59347 -176.35889,137.59347 -92.10935,0 -132.80256,-2.9551 -168.37545,-130.77454 -18.47023,-66.36666 -30.36208,-280.62012 0.0512,-327.03806 30.14926,-46.01492 124.06704,-9.66883 169.92091,-9.66883 44.88394,0 149.97409,-37.03169 184.16574,4.99303 37.93051,46.62016 13.08242,255.4771 -9.40354,324.89493 z"
       id="path3306"
       inkscape:connector-curvature="0"
       sodipodi:nodetypes="cssssssc" />
    <path
       style="fill:#000000;fill-opacity:1;stroke:#969696;stroke-width:0.14285715;stroke-linejoin:miter;stroke-miterlimit:4;stroke-opacity:1;stroke-dasharray:none"
       d="M 343.41506,291.8562 C 293.84495,287.40213 238.7843,274.61978 194.92857,257.38503 l -9.38288,-5.22434 -4.78579,-8.60685 c 0.0121,-17.62847 4.04113,-47.98519 13.94105,-67.6438 48.01139,-95.337907 171.08462,-133.553375 269.15664,-83.575837 20.73964,10.568927 32.61402,19.213237 49.35332,35.928227 31.28586,31.24043 49.82579,70.70708 46.90681,112.02118 l -3.28719,7.15823 -10.70349,8.7397 c -30.15341,24.62111 -66.97185,26.96631 -106.02813,32.85191 -22.67064,3.41635 -73.54635,4.90172 -96.68341,2.82275 l 0,0 z"
       id="path3012"
       inkscape:connector-curvature="0"
       sodipodi:nodetypes="csccsssscssccc" />
    <path
       style="fill:#ffffff;fill-opacity:1;stroke:#000000;stroke-width:0.13466884;stroke-linejoin:miter;stroke-miterlimit:4;stroke-opacity:1"
       d="m 225.31996,165.99254 c 23.19297,-18.35237 66.01285,-18.38754 95.99189,-2.58128 9.84245,5.18937 24.08937,13.6644 29.92263,18.91557 21.61387,19.45703 27.39836,57.14584 15.88429,87.3473 -2.69756,7.07572 6.8082,12.77679 -1.91748,14.70082 -27.39254,6.04011 -93.06925,-11.00432 -118.71642,-23.46826 -67.80389,-32.95114 -45.74519,-75.46401 -21.16491,-94.91415 z"
       id="path3014"
       inkscape:connector-curvature="0"
       sodipodi:nodetypes="sssssss" />
    <path
       sodipodi:type="arc"
       style="fill:#000000;fill-opacity:1;stroke:#000000;stroke-width:0.1;stroke-linejoin:miter;stroke-miterlimit:4;stroke-opacity:1;stroke-dasharray:none"
       id="path3140"
       sodipodi:cx="137.38075"
       sodipodi:cy="235.14877"
       sodipodi:rx="21.213203"
       sodipodi:ry="21.213203"
       d="m 158.59396,235.14877 c 0,11.71573 -9.49748,21.21321 -21.21321,21.21321 -11.71573,0 -21.2132,-9.49748 -21.2132,-21.21321 0,-11.71573 9.49747,-21.2132 21.2132,-21.2132 11.71573,0 21.21321,9.49747 21.21321,21.2132 z"
       transform="matrix(1.3340872,0,0,1.3340872,103.58199,-98.330661)" />
    <path
       style="fill:#ffff00;fill-opacity:1;stroke:#000000;stroke-width:0.00892857;stroke-linejoin:miter;stroke-miterlimit:4;stroke-opacity:1;stroke-dasharray:none"
       d=""
       id="path3176"
       inkscape:connector-curvature="0" />
    <path
       style="fill:#ffff00;fill-opacity:1;stroke:#000000;stroke-width:0.00892857;stroke-linejoin:miter;stroke-miterlimit:4;stroke-opacity:1;stroke-dasharray:none"
       d=""
       id="path3178"
       inkscape:connector-curvature="0" />
    <path
       style="fill:#ffff00;fill-opacity:1;stroke:#000000;stroke-width:0.00892857;stroke-linejoin:miter;stroke-miterlimit:4;stroke-opacity:1;stroke-dasharray:none"
       d=""
       id="path3186"
       inkscape:connector-curvature="0" />
    <path
       style="fill:#ffff00;fill-opacity:1;stroke:#000000;stroke-width:0.00892857;stroke-linejoin:miter;stroke-miterlimit:4;stroke-opacity:1;stroke-dasharray:none"
       d=""
       id="path3188"
       inkscape:connector-curvature="0" />
    <path
       style="fill:#ffff00;fill-opacity:1;stroke:#000000;stroke-width:0.00446429;stroke-linejoin:miter;stroke-miterlimit:4;stroke-opacity:1;stroke-dasharray:none"
       d=""
       id="path3196"
       inkscape:connector-curvature="0" />
    <path
       style="fill:#ffff00;fill-opacity:1;stroke:#000000;stroke-width:0.00446429;stroke-linejoin:miter;stroke-miterlimit:4;stroke-opacity:1;stroke-dasharray:none"
       d=""
       id="path3198"
       inkscape:connector-curvature="0" />
    <path
       style="fill:#ffff00;fill-opacity:1;stroke:#000000;stroke-width:0.01262691;stroke-linejoin:miter;stroke-miterlimit:4;stroke-opacity:1;stroke-dasharray:none"
       d=""
       id="path3208"
       inkscape:connector-curvature="0" />
    <path
       style="fill:#ffff00;fill-opacity:1;stroke:#000000;stroke-width:0.01262691;stroke-linejoin:miter;stroke-miterlimit:4;stroke-opacity:1;stroke-dasharray:none"
       d=""
       id="path3210"
       inkscape:connector-curvature="0" />
    <path
       style="fill:#ffffff;fill-opacity:1;stroke:#000000;stroke-width:0.13466884;stroke-linejoin:miter;stroke-miterlimit:4;stroke-opacity:1"
       d="m 513.63392,165.99254 c -23.19297,-18.35237 -66.01285,-18.38754 -95.99189,-2.58128 -9.84245,5.18937 -24.08937,13.6644 -29.92263,18.91557 -21.61387,19.45703 -27.39836,57.14584 -15.88429,87.3473 2.40167,6.2996 -16.96214,11.0423 -9.65191,13.18961 26.67702,7.83611 103.74252,-9.05762 130.28581,-21.95705 67.80389,-32.95114 45.74519,-75.46401 21.16491,-94.91415 z"
       id="path3014-2"
       inkscape:connector-curvature="0"
       sodipodi:nodetypes="sssssss" />
    <rect
       style="fill:#ffffff;fill-opacity:1;stroke:none"
       id="rect3268"
       width="17.596529"
       height="44.43568"
       x="359.39578"
       y="212.52782" />
    <path
       style="fill:#4d4d4d;fill-opacity:1;stroke:#000000;stroke-width:0.01262691;stroke-linejoin:miter;stroke-miterlimit:4;stroke-opacity:1;stroke-dasharray:none"
       d="m 362.42309,280.16674 c -2.4654,-0.79554 -4.50043,-1.49406 -4.52228,-1.55227 -0.0218,-0.0582 -0.1306,-0.071 -0.24168,-0.0283 -0.14196,0.0545 -0.17235,0.0296 -0.1023,-0.0838 0.0734,-0.11879 0.031,-0.13945 -0.16117,-0.0785 -0.20982,0.0666 -1.37845,-0.81107 -5.97481,-4.48721 -3.14268,-2.51349 -5.81361,-4.59605 -5.93539,-4.6279 -0.61879,-0.16182 -0.3479,-0.55116 3.34607,-4.8092 2.54264,-2.93091 3.77522,-4.26046 3.90883,-4.21633 0.0578,0.0191 0.0724,-0.0182 0.0325,-0.0827 -0.10332,-0.16717 4.07539,-4.18031 5.34993,-5.13797 2.08858,-1.5693 5.01496,-2.84871 7.96213,-3.48104 1.11603,-0.23945 1.72545,-0.28554 3.85121,-0.29125 2.73332,-0.007 3.52792,0.0956 5.38731,0.69772 1.25871,0.40764 2.36977,0.94433 3.45152,1.66726 0.84228,0.56289 3.98915,3.6845 3.94344,3.91179 -0.016,0.0796 0.0277,0.1481 0.0972,0.15227 0.4303,0.0258 9.75075,11.25573 9.88055,11.90475 0.0208,0.10419 -0.13207,0.15784 -0.44989,0.15784 -0.37011,0 -0.56537,0.0876 -0.84437,0.37881 -0.1996,0.20834 -0.31424,0.3788 -0.25475,0.3788 0.0595,0 -2.62365,2.04853 -5.96253,4.55229 l -6.07069,4.55229 -5.66217,0.99356 c -3.1142,0.54646 -5.86105,0.98951 -6.10412,0.98456 -0.24306,-0.005 -2.45909,-0.65991 -4.92449,-1.45544 l 0,0 z"
       id="path3234"
       inkscape:connector-curvature="0" />
    <path
       sodipodi:type="arc"
       style="fill:#000000;fill-opacity:1;stroke:#000000;stroke-width:0.1;stroke-linejoin:miter;stroke-miterlimit:4;stroke-opacity:1;stroke-dasharray:none"
       id="path3140-5"
       sodipodi:cx="137.38075"
       sodipodi:cy="235.14877"
       sodipodi:rx="21.213203"
       sodipodi:ry="21.213203"
       d="m 158.59396,235.14877 c 0,11.71573 -9.49748,21.21321 -21.21321,21.21321 -11.71573,0 -21.2132,-9.49748 -21.2132,-21.21321 0,-11.71573 9.49747,-21.2132 21.2132,-21.2132 11.71573,0 21.21321,9.49747 21.21321,21.2132 z"
       transform="matrix(1.3340872,0,0,1.3340872,268.17574,-98.330661)" />
    <path
       sodipodi:type="arc"
       style="fill:#808080;fill-opacity:1;stroke:none"
       id="path3315"
       sodipodi:cx="95.801575"
       sodipodi:cy="408.89493"
       sodipodi:rx="39.917324"
       sodipodi:ry="135.7189"
       d="m 135.7189,408.89493 c 0,74.95548 -17.8716,135.7189 -39.917325,135.7189 -22.04573,0 -39.917324,-60.76342 -39.917324,-135.7189 0,-74.95548 17.871594,-135.7189 39.917324,-135.7189 22.045725,0 39.917325,60.76342 39.917325,135.7189 z"
       transform="matrix(0.98293536,0.18395135,-0.18395135,0.98293536,142.316,-32.200543)" />
    <path
       sodipodi:type="arc"
       style="fill:#808080;fill-opacity:1;stroke:none"
       id="path3315-1"
       sodipodi:cx="95.801575"
       sodipodi:cy="408.89493"
       sodipodi:rx="39.917324"
       sodipodi:ry="135.7189"
       d="m 135.7189,408.89493 c 0,74.95548 -17.8716,135.7189 -39.917325,135.7189 -22.04573,0 -39.917324,-60.76342 -39.917324,-135.7189 0,-74.95548 17.871594,-135.7189 39.917324,-135.7189 22.045725,0 39.917325,60.76342 39.917325,135.7189 z"
       transform="matrix(-0.98293536,0.18395135,0.18395135,0.98293536,594.14623,-32.200543)" />
  </g>
</svg>
