<?xml version="1.0" encoding="UTF-8" standalone="no"?>
<!-- Created with Inkscape (http://www.inkscape.org/) -->

<svg
   xmlns:dc="http://purl.org/dc/elements/1.1/"
   xmlns:cc="http://creativecommons.org/ns#"
   xmlns:rdf="http://www.w3.org/1999/02/22-rdf-syntax-ns#"
   xmlns:svg="http://www.w3.org/2000/svg"
   xmlns="http://www.w3.org/2000/svg"
   xmlns:sodipodi="http://sodipodi.sourceforge.net/DTD/sodipodi-0.dtd"
   xmlns:inkscape="http://www.inkscape.org/namespaces/inkscape"
   width="433.82364"
   height="393.82367"
   id="svg2"
   version="1.1"
   inkscape:version="0.48.3.1 r9886"
   sodipodi:docname="speech.svg">
  <defs
     id="defs4" />
  <sodipodi:namedview
     id="base"
     pagecolor="#ffffff"
     bordercolor="#666666"
     borderopacity="1.0"
     inkscape:pageopacity="0.0"
     inkscape:pageshadow="2"
     inkscape:zoom="0.7"
     inkscape:cx="277.52354"
     inkscape:cy="88.969912"
     inkscape:document-units="px"
     inkscape:current-layer="layer1"
     showgrid="false"
     inkscape:window-width="1366"
     inkscape:window-height="718"
     inkscape:window-x="0"
     inkscape:window-y="0"
     inkscape:window-maximized="1"
     fit-margin-top="0"
     fit-margin-left="0"
     fit-margin-right="0"
     fit-margin-bottom="0" />
  <metadata
     id="metadata7">
    <rdf:RDF>
      <cc:Work
         rdf:about="">
        <dc:format>image/svg+xml</dc:format>
        <dc:type
           rdf:resource="http://purl.org/dc/dcmitype/StillImage" />
        <dc:title></dc:title>
      </cc:Work>
    </rdf:RDF>
  </metadata>
  <g
     inkscape:label="Layer 1"
     inkscape:groupmode="layer"
     id="layer1"
     transform="translate(-175.24778,-237.60996)">
    <path
       style="fill:#ffffff;fill-opacity:1;stroke:none"
       d="m 557.468,601.57073 c -25.28217,-14.09126 -53.30108,-29.71158 -62.26425,-34.71184 l -16.29668,-9.09137 11.57704,-0.34273 c 6.70835,-0.19859 13.55593,-0.68422 16.28256,-1.15476 8.093,-1.39662 16.55063,-4.69377 23.61427,-9.20586 1.48875,-0.95098 2.76135,-1.65917 2.82799,-1.57377 0.27484,0.35222 69.19602,79.54411 70.13682,80.58869 0.56293,0.62503 0.81344,1.13095 0.55667,1.12426 -0.25677,-0.007 -21.15226,-11.54137 -46.43442,-25.63262 l 0,0 z"
       id="path3807"
       inkscape:connector-curvature="0" />
    <path
       style="fill:none;stroke:#969696;stroke-width:1px;stroke-linecap:butt;stroke-linejoin:miter;stroke-opacity:1"
       d="m 472.85714,555.21933 135.71429,75.71429 -77.14285,-88.57143"
       id="path3763"
       inkscape:connector-curvature="0"
       sodipodi:nodetypes="ccc" />
    <path
       style="fill:#ffffff;fill-opacity:1;stroke:#969696;stroke-width:0.93300003;stroke-linejoin:miter;stroke-miterlimit:4;stroke-opacity:1"
       d="m 475.78185,556.6479 -239.34635,0 c -33.63956,0 -60.72122,-27.08166 -60.72122,-60.72122 l 0,-197.129 c 0,-33.63955 27.08166,-60.72122 60.72122,-60.72122 l 259.98612,0 c 33.63955,0 60.72122,27.08167 60.72122,60.72122 l 0,197.129 c 0,19.97027 -9.54427,37.62937 -24.33884,48.68334"
       id="rect3757"
       inkscape:connector-curvature="0"
       sodipodi:nodetypes="csssssssc" />
    <path
       style="fill:#ffffff;fill-opacity:1;stroke:none"
       d="m 541.23763,592.47863 -62.19793,-34.71111 11.94285,-0.3218 c 6.56856,-0.177 13.45389,-0.57541 15.30073,-0.88537 8.12567,-1.36376 17.59481,-5.03749 23.99737,-9.31023 l 2.60652,-1.73946 1.74484,1.83528 c 0.95966,1.00941 16.46617,18.76796 34.45891,39.46346 17.99273,20.69551 33.29393,38.25322 34.00266,39.01715 0.70872,0.76392 1.07561,1.38316 0.81529,1.37607 -0.26032,-0.007 -28.46237,-15.63288 -62.67124,-34.72399 l 0,0 z"
       id="path3801"
       inkscape:connector-curvature="0" />
    <path
       style="fill:#ffffff;fill-opacity:1;stroke:none"
       d="M 556.16531,600.81296 C 530.16666,586.3051 502.16619,570.68484 493.94204,566.10128 l -14.95301,-8.33376 12.22072,-0.33099 c 9.57308,-0.25928 13.36968,-0.56776 17.52402,-1.42387 6.84119,-1.40981 14.44689,-4.40049 19.904,-7.82656 l 4.33181,-2.7196 5.2093,5.89797 c 2.86511,3.24389 18.35696,21.01238 34.42633,39.48555 16.06937,18.47316 29.79302,34.2126 30.497,34.97653 0.70398,0.76392 1.06698,1.38342 0.80666,1.37664 -0.26032,-0.007 -21.74492,-11.88238 -47.74356,-26.39023 l 0,0 z"
       id="path3803"
       inkscape:connector-curvature="0" />
    <path
       style="fill:#ffffff;fill-opacity:1;stroke:none"
       d="m 553.18048,599.15567 c -27.6403,-15.41986 -55.6564,-31.04031 -62.258,-34.71213 l -12.00291,-6.67602 11.49783,-0.31285 c 6.32381,-0.17207 13.31611,-0.59154 15.53845,-0.93214 7.80602,-1.1964 18.59152,-5.37788 24.6848,-9.57017 l 2.31136,-1.59025 1.70508,1.90956 c 0.9378,1.05025 16.54278,18.95588 34.67773,39.79027 18.13495,20.8344 33.43654,38.39211 34.00354,39.01715 0.567,0.62503 0.82083,1.13108 0.56406,1.12455 -0.25677,-0.007 -23.08164,-12.62812 -50.72194,-28.04797 z"
       id="path3805"
       inkscape:connector-curvature="0" />
    <path
       style="fill:#ffffff;fill-opacity:1;stroke:none"
       d=""
       id="path3813"
       inkscape:connector-curvature="0" />
    <path
       style="fill:#ffffff;fill-opacity:1;stroke:none"
       d=""
       id="path3821"
       inkscape:connector-curvature="0" />
    <path
       style="fill:#ffffff;fill-opacity:1;stroke:none"
       d="m 367.15274,355.51036 c -31.0825,-17.41113 -58.40393,-32.94232 -60.71429,-34.51375 -4.10327,-2.79092 -7.16571,-2.8737 -132.13337,-3.57142 L 46.372348,316.7109 35.488496,311.33107 C 17.875782,302.62519 6.4211818,287.55946 2.8895496,268.4551 1.9409331,263.32356 1.5667315,222.82803 1.8348822,154.32054 2.2977082,36.07714 1.6148833,44.237837 12.406078,27.980215 18.486303,18.819967 29.471516,10.000486 40.360416,5.5370636 L 47.952108,2.4251859 185.80925,1.9936396 c 99.17157,-0.3104455 140.24646,0.026963 146.37154,1.2023625 21.37863,4.1025465 38.7828,19.6538939 45.62956,40.7719079 2.1169,6.529346 2.31359,18.418563 1.96157,118.57143 l -0.39124,111.31442 -4.59284,9.69635 c -2.74768,5.80086 -7.35843,12.3788 -11.47675,16.37329 l -6.8839,6.67691 34.69103,39.63379 c 19.08007,21.79859 34.69103,39.98419 34.69103,40.41244 0,0.42826 -0.48214,0.72055 -1.07143,0.64953 -0.58928,-0.071 -26.50257,-14.37458 -57.58508,-31.78571 l 0,0 z"
       id="path4162"
       inkscape:connector-curvature="0"
       transform="translate(175.24778,237.60996)" />
  </g>
</svg>
